<?xml version="1.0" encoding="UTF-8" standalone="no"?>
<!-- Created with Inkscape (http://www.inkscape.org/) -->

<svg
   width="282.31378mm"
   height="147.10831mm"
   viewBox="0 0 282.31378 147.10831"
   version="1.1"
   id="svg1"
   xml:space="preserve"
   inkscape:version="1.3.2 (091e20ef0f, 2023-11-25)"
   sodipodi:docname="abonnement.svg"
   xmlns:inkscape="http://www.inkscape.org/namespaces/inkscape"
   xmlns:sodipodi="http://sodipodi.sourceforge.net/DTD/sodipodi-0.dtd"
   xmlns="http://www.w3.org/2000/svg"
   xmlns:svg="http://www.w3.org/2000/svg"><sodipodi:namedview
     id="namedview1"
     pagecolor="#ffffff"
     bordercolor="#000000"
     borderopacity="0.25"
     inkscape:showpageshadow="2"
     inkscape:pageopacity="0.0"
     inkscape:pagecheckerboard="0"
     inkscape:deskcolor="#d1d1d1"
     inkscape:document-units="mm"
     inkscape:zoom="0.70911897"
     inkscape:cx="472.4172"
     inkscape:cy="265.11771"
     inkscape:window-width="2560"
     inkscape:window-height="1002"
     inkscape:window-x="0"
     inkscape:window-y="0"
     inkscape:window-maximized="1"
     inkscape:current-layer="layer1" /><defs
     id="defs1" /><g
     inkscape:label="Calque 1"
     inkscape:groupmode="layer"
     id="layer1"
     transform="translate(-7.8850111,-56.112239)"><path
       style="fill:#bb6ce6;fill-opacity:1"
       d="m 99.982333,202.80481 c -0.9018,-0.9018 -0.55419,-1.09692 4.914487,-2.75854 4.94062,-1.50117 19.82075,-4.26709 28.50139,-5.29783 7.3385,-0.87138 9.00689,-1.04855 12.20585,-1.29619 4.57453,-0.35413 7.49591,-0.49386 14.68437,-0.70236 3.20146,-0.0929 5.88037,-0.20293 5.95313,-0.24459 0.0728,-0.0417 2.57307,-0.16099 5.55625,-0.26517 2.98317,-0.10418 5.5194,-0.24687 5.63606,-0.31709 0.41733,-0.2512 21.0125,-0.3058 23.86498,-0.0633 1.60073,0.13611 5.47026,0.4849 8.59896,0.77509 3.12869,0.29019 6.64104,0.5957 7.8052,0.67891 3.19949,0.22868 4.72695,0.55243 6.25164,1.32504 1.14559,0.58052 1.30787,0.74496 0.93892,0.95143 -0.73041,0.40876 -3.29681,0.28267 -6.39681,-0.31429 -3.51417,-0.67671 -6.86305,-0.96173 -14.55208,-1.23853 -9.7472,-0.35089 -28.96996,-0.18045 -35.62656,0.31589 -0.63279,0.0472 -4.36521,0.16151 -8.29427,0.25406 -3.92907,0.0925 -7.85813,0.22058 -8.73125,0.28452 -7.53821,0.55203 -12.07958,1.00811 -17.19792,1.72714 -1.01864,0.1431 -3.51896,0.49451 -5.55625,0.78091 -2.03729,0.28641 -4.83526,0.6982 -6.21771,0.91511 -1.38245,0.2169 -3.69919,0.57675 -5.14831,0.79967 -3.41218,0.52488 -7.49075,1.48474 -12.48783,2.93891 -2.20556,0.64182 -4.07229,1.16695 -4.14829,1.16695 -0.076,0 -0.32528,-0.1871 -0.553957,-0.41577 z m -19.7393,-37.61809 c -1.47649,-1.86344 0.72013,-7.25419 3.55284,-8.71904 1.00988,-0.52223 2.3255,-0.49667 3.17773,0.0617 0.59242,0.38817 0.66235,0.38561 0.89646,-0.0327 0.29327,-0.52406 1.11316,-0.33312 1.11316,0.25923 0,1.0997 -1.34434,8.75648 -1.57854,8.99068 -0.18833,0.18833 -0.36925,0.17784 -0.58079,-0.0337 -0.23325,-0.23325 -0.2333,-0.83018 -2e-4,-2.47846 0.16887,-1.19417 0.25908,-2.21918 0.20046,-2.27781 -0.0586,-0.0586 -0.46269,0.411 -0.89794,1.04361 -0.43524,0.6326 -1.30751,1.66634 -1.93837,2.29721 -1.80264,1.80264 -3.00613,2.07394 -3.94481,0.88926 z m 2.56137,-1.14851 c 0.97942,-0.60531 4.06216,-5.04403 4.06216,-5.84894 0,-0.61933 -1.08156,-1.12413 -1.94448,-0.90756 -1.80631,0.45336 -3.87636,3.67297 -3.87636,6.02905 0,1.48575 0.31854,1.61751 1.75868,0.72745 z m 17.811547,1.14851 c -1.476497,-1.86344 0.72013,-7.25419 3.55283,-8.71904 1.00988,-0.52223 2.32551,-0.49667 3.17773,0.0617 0.59243,0.38817 0.66236,0.38561 0.89646,-0.0327 0.29328,-0.52406 1.11317,-0.33312 1.11317,0.25923 0,1.0997 -1.34434,8.75648 -1.57854,8.99068 -0.18834,0.18833 -0.36925,0.17784 -0.58079,-0.0337 -0.23326,-0.23325 -0.2333,-0.83018 -2.1e-4,-2.47846 0.16888,-1.19417 0.25909,-2.21918 0.20047,-2.27781 -0.0586,-0.0586 -0.4627,0.411 -0.89794,1.04361 -0.43524,0.6326 -1.30751,1.66634 -1.93837,2.29721 -1.80265,1.80264 -3.00614,2.07394 -3.94481,0.88926 z m 2.56137,-1.14851 c 0.97941,-0.60531 4.06215,-5.04403 4.06215,-5.84894 0,-0.61933 -1.08156,-1.12413 -1.94447,-0.90756 -1.80632,0.45336 -3.87636,3.67297 -3.87636,6.02905 0,1.48575 0.31854,1.61751 1.75868,0.72745 z m 91.12004,1.41269 c -3.50111,-1.76803 -3.03778,-10.94873 0.84608,-16.76485 2.55198,-3.82162 6.09148,-4.17123 7.80905,-0.77134 2.16234,4.2803 -1.92455,16.14675 -6.10264,17.71928 -1.02679,0.38646 -1.49051,0.3532 -2.55249,-0.18309 z m 3.57488,-1.93039 c 2.61294,-2.53257 5.09804,-10.68404 4.33784,-14.22873 -0.66518,-3.10165 -3.81461,-3.33751 -5.81144,-0.43521 -3.20943,4.66475 -4.33632,12.98061 -2.06658,15.25035 0.79303,0.79302 2.38986,0.52851 3.54018,-0.58641 z m 46.15682,2.20763 c -0.85639,-0.31162 -1.85941,-1.55006 -2.29454,-2.8331 -1.48173,-4.36915 0.72046,-12.76777 4.1583,-15.85868 1.53023,-1.37581 2.69195,-1.71994 4.24022,-1.25606 2.19359,0.65722 3.19249,3.41302 2.63043,7.25696 -1.1355,7.7657 -5.36823,13.91575 -8.73441,12.69088 z m 2.40965,-1.54829 c 1.64461,-0.85046 3.98664,-5.55645 4.85324,-9.75192 0.55366,-2.68046 0.51678,-4.7893 -0.10784,-6.1652 -0.56435,-1.24314 -1.26463,-1.5648 -2.8475,-1.30794 -4.16198,0.6754 -7.71422,13.25692 -4.79186,16.9721 0.61306,0.77938 1.69336,0.87381 2.89396,0.25296 z m -135.12737,1.09241 c -0.14551,-0.37921 1.06618,-8.17475 1.40984,-9.0703 0.0776,-0.20228 0.3345,-0.3289 0.57086,-0.28137 0.46874,0.0942 0.4936,0.46018 0.20255,2.98228 -0.15362,1.33129 -0.12872,1.50811 0.15428,1.09559 1.74357,-2.54148 3.50165,-4.1383 4.55625,-4.1383 0.24868,0 0.80017,0.34803 1.22554,0.7734 0.70825,0.70825 0.7734,0.93021 0.7734,2.63502 0,2.43034 -0.50309,5.76556 -0.92214,6.11334 -0.64919,0.53878 -0.95538,-0.31959 -0.66333,-1.85955 0.38278,-2.01843 0.42386,-5.75465 0.0672,-6.11132 -0.9614,-0.9614 -2.97502,1.15516 -5.22616,5.49334 -1.34256,2.58726 -1.84962,3.14615 -2.14828,2.36787 z m 13.69619,0.03 c -0.21831,-0.26305 -0.12533,-1.2974 0.36177,-4.02451 0.36057,-2.01875 0.65559,-3.82544 0.65559,-4.01485 0,-0.23572 -0.4072,-0.34438 -1.29052,-0.34438 -0.76869,0 -1.41192,-0.14629 -1.59076,-0.36178 -0.46618,-0.5617 0.17387,-0.91747 1.81963,-1.01144 l 1.43584,-0.082 0.85991,-4.85404 c 0.86633,-4.89023 1.19002,-5.8458 1.80683,-5.3339 0.25418,0.21096 0.16098,1.20491 -0.42825,4.56733 -0.41423,2.36373 -0.82246,4.61893 -0.90717,5.01155 -0.15208,0.70489 -0.13467,0.71487 1.38534,0.79375 1.33634,0.0694 1.53936,0.14968 1.53936,0.60906 0,0.46328 -0.20241,0.53888 -1.62571,0.60721 l -1.62572,0.078 -0.54793,2.96466 c -0.30136,1.63056 -0.62644,3.46843 -0.72241,4.08414 -0.20204,1.29634 -0.67802,1.85068 -1.1258,1.31114 z m 14.72171,0.0533 c -0.15586,-0.46759 2.9204,-19.34676 3.19762,-19.62399 0.36559,-0.36558 0.82528,0.0168 0.82399,0.6854 -0.002,0.83234 -2.87679,18.7016 -3.05568,18.99105 -0.20841,0.33722 -0.84761,0.30249 -0.96593,-0.0525 z m 6.41298,-0.1692 c -2.46321,-1.24259 -2.60899,-5.09795 -0.28081,-7.42613 1.20829,-1.20829 2.69313,-1.90002 4.07853,-1.90002 0.96175,0 1.28412,0.12988 1.73033,0.69714 0.3016,0.38343 0.54792,0.88944 0.54738,1.12448 -0.003,1.43319 -2.64823,3.74075 -5.09224,4.44274 -1.64873,0.47357 -1.84472,0.82061 -0.96193,1.7034 0.75131,0.75131 2.94044,0.60424 4.18377,-0.28109 0.76473,-0.54454 0.90169,-0.56767 1.25705,-0.21232 0.35535,0.35536 0.30244,0.4704 -0.48561,1.0559 -1.73428,1.28849 -3.45459,1.56363 -4.97647,0.7959 z m 1.99687,-4.79609 c 1.752,-0.82884 2.82476,-1.93833 2.70225,-2.79476 -0.11573,-0.80905 -1.10331,-0.8199 -2.71811,-0.0298 -1.44497,0.70696 -2.14562,1.48996 -2.5288,2.82604 -0.19256,0.67143 -0.15067,0.76015 0.35882,0.75997 0.31727,-1.1e-4 1.30089,-0.34274 2.18584,-0.7614 z m 16.38267,4.77348 c -1.06691,-0.65065 -2.46664,-2.27769 -2.67555,-3.11005 -0.22805,-0.90864 0.35466,-1.50549 0.78473,-0.80377 1.56424,2.55232 2.38457,3.20924 4.00749,3.20924 1.44435,0 2.43792,-0.69048 3.25844,-2.26445 0.73337,-1.40678 0.67879,-3.32628 -0.12615,-4.43599 -0.65523,-0.90331 -3.10461,-2.1631 -4.20567,-2.1631 -0.87756,0 -1.60789,-0.57288 -1.32137,-1.0365 0.0904,-0.14626 0.60666,-0.34804 1.14726,-0.4484 1.23116,-0.22858 3.05535,-0.99921 4.062,-1.71601 0.89668,-0.63849 1.8157,-2.30068 1.8157,-3.28398 0,-2.62611 -2.97513,-3.42152 -5.20594,-1.39183 -0.59515,0.5415 -1.14406,0.44783 -1.14406,-0.19522 0,-0.49514 1.58743,-1.67727 2.6848,-1.99934 2.0569,-0.60368 4.15184,0.53984 4.69682,2.56374 0.53803,1.99811 -0.51388,4.00652 -2.96279,5.65684 l -1.5343,1.03397 1.02706,0.64836 c 2.21047,1.3954 3.30151,3.76647 2.72254,5.91662 -0.36158,1.3428 -1.64678,3.11824 -2.73953,3.78451 -1.10908,0.67624 -3.21217,0.69357 -4.29148,0.0354 z m 10.02657,0.11266 c -0.19129,-0.49849 2.76979,-19.53211 3.08901,-19.8559 0.15855,-0.16082 0.37959,-0.11254 0.60566,0.13229 0.29976,0.32463 0.12182,1.89029 -1.12637,9.91054 -0.8153,5.23875 -1.57869,9.67383 -1.69642,9.85573 -0.28445,0.4395 -0.69455,0.41944 -0.87188,-0.0427 z m 33.36569,-0.0434 c -1.12819,-0.58825 -1.68064,-1.14092 -2.44606,-2.44702 -0.61327,-1.04646 -0.63472,-1.18081 -0.25002,-1.56552 0.38471,-0.3847 0.46166,-0.34348 0.8967,0.48035 0.26173,0.49565 0.85587,1.27473 1.32031,1.73129 2.46356,2.42178 6.16702,0.4217 6.16702,-3.33054 0,-2.45974 -1.6495,-4.08558 -4.48584,-4.4215 -1.33337,-0.15792 -2.16583,-0.70299 -1.70742,-1.11798 0.13207,-0.11956 0.81633,-0.35704 1.52057,-0.52772 2.87741,-0.69736 4.68176,-2.01199 5.32347,-3.87861 0.65526,-1.90602 -0.36702,-3.55682 -2.20144,-3.55494 -0.86048,8.9e-4 -1.50663,0.29715 -3.00612,1.37832 -0.36454,0.26284 -0.52337,0.26021 -0.79375,-0.0131 -0.27494,-0.27795 -0.15685,-0.50836 0.63292,-1.2349 1.85392,-1.70549 4.34027,-1.76789 5.89234,-0.14787 1.93874,2.0236 0.63875,5.80294 -2.56379,7.45348 -0.5457,0.28125 -0.9857,0.59824 -0.97777,0.70442 0.008,0.10618 0.56719,0.55652 1.24281,1.00075 2.25657,1.48374 3.06119,4.24057 1.92648,6.60064 -0.66503,1.38319 -1.00051,1.77563 -2.23276,2.61185 -1.20083,0.81491 -3.00295,0.93284 -4.25765,0.27862 z m 21.08231,0.0784 c -0.22487,-0.27095 0.47364,-1.53384 3.04032,-5.49679 4.03899,-6.23619 5.41293,-8.95118 5.46959,-10.80821 0.0938,-3.07423 -2.72536,-2.98732 -4.88429,0.15058 -0.73732,1.07166 -0.86765,1.15646 -1.22623,0.79788 -0.35859,-0.35859 -0.33928,-0.50148 0.18169,-1.34442 0.82663,-1.33751 2.58962,-2.76682 3.66059,-2.96773 1.11506,-0.20919 2.49133,0.38405 3.12123,1.3454 0.32667,0.49856 0.41241,1.07578 0.32968,2.21947 -0.15067,2.08299 -1.5088,4.82319 -5.19874,10.4891 l -2.92928,4.49792 3.36065,0.13229 c 3.14015,0.12361 3.36064,0.16701 3.36064,0.66146 0,0.5026 -0.20067,0.53282 -3.99695,0.602 -3.07297,0.056 -4.06444,-0.008 -4.2889,-0.27895 z m 25.2699,0.16863 c -0.39161,-0.39161 -0.0718,-0.99266 3.28705,-6.17704 3.69723,-5.70672 4.91119,-8.03736 5.17002,-9.92575 0.18034,-1.31576 -0.29429,-2.34437 -1.18985,-2.57856 -0.93758,-0.24518 -2.53909,0.71836 -3.60306,2.16778 -0.89844,1.22392 -1.05484,1.33282 -1.40762,0.98004 -0.35278,-0.35278 -0.28707,-0.54646 0.59134,-1.7431 1.76053,-2.39831 4.06898,-3.26467 5.56445,-2.08834 2.49852,1.96533 1.66533,4.87018 -3.81967,13.31704 -1.60641,2.47385 -2.92138,4.58355 -2.92216,4.68821 -7.9e-4,0.10466 1.45709,0.22372 3.23972,0.26458 3.03999,0.0697 3.24115,0.10713 3.24115,0.60346 0,0.50251 -0.20065,0.53283 -3.98418,0.60193 -2.1913,0.04 -4.06654,-0.01 -4.16719,-0.11025 z m 17.90513,-0.22504 c -0.0833,-0.21715 -0.0201,-1.14964 0.14059,-2.0722 0.48115,-2.76296 0.68609,-2.56007 -2.58591,-2.56007 -2.13071,0 -2.95708,-0.0952 -3.18247,-0.36683 -0.23309,-0.28085 -0.0516,-1.90868 0.77448,-6.94531 0.59341,-3.61817 1.18953,-6.84637 1.32471,-7.1738 0.31109,-0.75348 1.05088,-0.78445 1.05088,-0.044 0,0.49328 -1.63817,10.66577 -2.00967,12.47941 l -0.14904,0.72761 h 2.64902 c 3.01299,0 2.71916,0.26114 3.22126,-2.86296 0.19801,-1.23208 0.45234,-1.99104 0.6989,-2.08566 0.71676,-0.27504 0.83691,0.30735 0.47509,2.30278 -0.19789,1.09141 -0.36607,2.13321 -0.37373,2.31511 -0.01,0.22903 0.46943,0.33073 1.55797,0.33073 1.64322,0 2.13265,0.28798 1.5935,0.93763 -0.21241,0.25593 -0.83274,0.38528 -1.8477,0.38528 h -1.52795 l -0.29174,1.67532 c -0.16046,0.92143 -0.29175,1.90964 -0.29175,2.19604 0,0.93895 -0.93542,1.5193 -1.22644,0.76091 z M 92.359363,164.12846 c -0.47674,-1.0645 -0.56554,-1.78299 -0.58043,-4.69635 -0.0148,-2.88884 0.046,-3.43959 0.37929,-3.43959 0.31833,0 0.43999,0.62288 0.61469,3.14715 0.22173,3.2038 0.63218,5.07157 1.10626,5.03414 0.41276,-0.0326 1.87191,-2.60903 3.10606,-5.4844 1.09882,-2.56009 1.56551,-3.15707 2.07205,-2.65053 0.47986,0.47985 -2.58926,7.05456 -3.99619,8.56068 -0.45736,0.48961 -0.99864,0.78567 -1.4364,0.78567 -0.58265,0 -0.79848,-0.21436 -1.26533,-1.25677 z m 86.178127,0.98055 c -0.0939,-0.15192 -0.004,-0.53887 0.20028,-0.85989 0.20405,-0.32102 2.90507,-4.66157 6.00228,-9.64566 3.09721,-4.98409 5.79099,-9.06198 5.9862,-9.06198 0.1952,0 0.43035,0.12206 0.52255,0.27125 0.21936,0.35493 -11.76242,19.5725 -12.20308,19.5725 -0.18563,0 -0.41434,-0.1243 -0.50823,-0.27622 z m 38.1,0 c -0.0939,-0.15192 -0.004,-0.53887 0.20028,-0.85989 0.20405,-0.32102 2.90507,-4.66157 6.00228,-9.64566 3.09721,-4.98409 5.79099,-9.06198 5.9862,-9.06198 0.1952,0 0.43035,0.12206 0.52255,0.27125 0.21936,0.35493 -11.76242,19.5725 -12.20308,19.5725 -0.18563,0 -0.41434,-0.1243 -0.50823,-0.27622 z m -88.95669,-34.9663 c -0.39771,-0.48344 1.20159,-9.73302 1.71709,-9.93084 0.83196,-0.31925 0.839,0.43789 0.0462,4.96711 -0.80378,4.5919 -1.1854,5.66618 -1.76329,4.96373 z m 52.60288,-0.64428 c -1.48247,-1.88465 0.2177,-6.47117 3.18095,-8.58119 0.93819,-0.66805 2.23356,-0.72503 3.3506,-0.14738 0.70428,0.3642 0.82489,0.36753 0.95577,0.0265 0.16741,-0.43627 0.84579,-0.52481 1.0828,-0.14132 0.20199,0.32682 -1.15475,9.07215 -1.45579,9.38384 -0.13834,0.14323 -0.37872,0.11833 -0.59566,-0.0617 -0.30301,-0.25148 -0.31004,-0.66683 -0.0421,-2.4891 0.17688,-1.20298 0.28799,-2.22483 0.24693,-2.27077 -0.0411,-0.0459 -0.40672,0.37078 -0.81256,0.92604 -1.13069,1.54698 -2.80824,3.25934 -3.60188,3.67662 -1.04923,0.55167 -1.69269,0.46208 -2.30904,-0.32148 z m 3.30118,-2.03605 c 0.75128,-0.77565 1.82019,-2.22252 2.37537,-3.21527 l 1.0094,-1.80498 -0.63071,-0.51073 c -0.80998,-0.65588 -1.94402,-0.45424 -2.97963,0.52981 -2.19002,2.08099 -3.33287,6.41145 -1.69205,6.41145 0.31931,0 1.12698,-0.59399 1.91762,-1.41028 z m 7.34201,2.29303 c -0.22032,-0.57416 2.86766,-19.08326 3.27656,-19.63943 0.2457,-0.33419 0.38289,-0.35663 0.63866,-0.10446 0.25769,0.25407 0.12217,1.55289 -0.64877,6.21771 -0.53598,3.2431 -0.97221,6.11584 -0.96939,6.38386 0.004,0.36938 0.28139,0.20305 1.14681,-0.68741 1.22641,-1.26188 2.21301,-1.61399 3.38125,-1.20674 2.93172,1.022 1.65103,6.88297 -1.89984,8.69449 -1.16315,0.59339 -2.38845,0.6656 -3.17053,0.18683 -0.45589,-0.27908 -0.58133,-0.25843 -0.80331,0.13229 -0.33153,0.58356 -0.73258,0.59319 -0.95144,0.0229 z m 4.36325,-1.38377 c 1.66442,-0.84948 2.62508,-2.34794 2.87883,-4.49044 0.16844,-1.42226 -0.28988,-2.15229 -1.35124,-2.15229 -1.00663,0 -1.92191,0.96565 -3.04825,3.216 -1.17404,2.34567 -1.27544,2.89033 -0.6538,3.51197 0.54155,0.54155 0.98005,0.52436 2.17446,-0.0852 z m -100.681157,1.2419 c -0.20034,-0.24446 -0.18608,-0.89912 0.0493,-2.26224 0.18217,-1.05502 0.25685,-1.91823 0.16597,-1.91823 -0.0909,0 -0.6866,0.71592 -1.3238,1.59094 -1.19579,1.64208 -2.47451,2.6424 -3.37782,2.6424 -0.79213,0 -1.6952,-1.14631 -1.85774,-2.35813 -0.18011,-1.34284 0.66853,-6.79613 1.11532,-7.16693 0.22899,-0.19005 0.42043,-0.15798 0.64061,0.10731 0.24361,0.29354 0.22182,0.86434 -0.0972,2.54603 -0.5496,2.89727 -0.54851,5.24814 0.003,5.45959 1.14237,0.43837 2.72902,-1.45198 4.97736,-5.93006 0.67583,-1.34607 1.35039,-2.4474 1.49902,-2.4474 0.58846,0 0.56528,1.0156 -0.1168,5.11809 -0.70583,4.24534 -1.09781,5.32505 -1.67676,4.61863 z m 15.466467,-0.15261 c -0.8633,-0.5349 -1.77825,-2.278 -1.77615,-3.38379 0.006,-3.23271 3.19641,-6.36772 5.92468,-5.82206 0.8587,0.17173 2.27593,1.35773 2.27593,1.90459 0,0.65836 -0.55578,0.65221 -1.34863,-0.0149 -2.18226,-1.83625 -5.53054,0.43055 -5.53054,3.74421 0,1.16663 0.35182,2.15092 0.89951,2.51663 0.48111,0.32125 1.98899,0.22741 2.76101,-0.17181 0.3981,-0.20587 0.88856,-0.68212 1.0899,-1.05834 0.20135,-0.37621 0.51753,-0.68403 0.70264,-0.68403 1.21626,0 0.075,2.09151 -1.57782,2.89165 -1.36914,0.66278 -2.43728,0.6871 -3.42053,0.0779 z m 46.14661,0.11494 c -0.21584,-0.26008 -0.2257,-0.75414 -0.0351,-1.75917 0.14577,-0.76863 0.26503,-1.7071 0.26503,-2.08548 0,-0.61515 -0.0943,-0.54793 -0.89104,0.63517 -1.18425,1.7585 -2.92027,3.30002 -3.71641,3.30002 -0.38669,0 -0.90645,-0.32002 -1.32215,-0.81405 -0.8324,-0.98925 -0.90811,-2.7009 -0.2699,-6.10204 0.44503,-2.37167 0.86976,-3.1601 1.37464,-2.55177 0.21032,0.25343 0.1862,0.88757 -0.0886,2.32838 -0.52445,2.7501 -0.50681,5.51925 0.0365,5.72773 1.06274,0.40781 2.58951,-1.36198 4.62652,-5.36294 1.52449,-2.9943 1.71461,-3.24404 2.14326,-2.81539 0.23072,0.23072 0.12429,1.40733 -0.43559,4.81514 -0.7314,4.4519 -1.07905,5.41715 -1.68718,4.6844 z m 4.28482,-0.0666 c -0.1979,-0.51573 1.16537,-8.8731 1.50237,-9.21011 0.14514,-0.14514 0.38788,-0.11936 0.60971,0.0647 0.30729,0.25503 0.31573,0.61391 0.0508,2.15837 -0.17477,1.01887 -0.23562,1.85249 -0.13522,1.85249 0.10039,0 0.73976,-0.71755 1.42081,-1.59455 1.24969,-1.60924 2.57152,-2.63597 3.39594,-2.63779 0.24655,-5.5e-4 0.76785,0.27391 1.15846,0.60989 0.91552,0.7875 1.08685,2.37411 0.64547,5.9773 -0.32679,2.66768 -0.75716,3.61165 -1.36808,3.00073 -0.20238,-0.20238 -0.19241,-0.9182 0.0347,-2.4891 0.17531,-1.21276 0.27843,-2.97893 0.22915,-3.92481 -0.0822,-1.57727 -0.14155,-1.72714 -0.71642,-1.80847 -0.97268,-0.1376 -2.83653,2.07341 -4.61816,5.47836 -0.84744,1.61958 -1.65485,2.94469 -1.79424,2.94469 -0.13939,0 -0.32626,-0.18978 -0.41527,-0.42173 z m 50.60142,0.18927 c -0.25302,-0.40939 1.20586,-8.85098 1.60398,-9.28119 0.26205,-0.28319 0.43497,-0.30734 0.65133,-0.091 0.21637,0.21636 0.20975,0.79742 -0.0249,2.18875 -0.17572,1.0418 -0.26532,1.94836 -0.1991,2.01457 0.0662,0.0662 0.42084,-0.32851 0.78807,-0.87717 0.88886,-1.32805 2.57014,-2.98161 3.32959,-3.27471 0.95172,-0.3673 1.34426,-0.28803 2.04532,0.41303 0.59146,0.59146 0.64925,0.85718 0.64743,2.97657 -0.002,2.51822 -0.41324,5.62081 -0.79588,6.00685 -0.14241,0.14368 -0.37865,0.12344 -0.58809,-0.0504 -0.29018,-0.24082 -0.28664,-0.81151 0.0207,-3.33591 0.45122,-3.70643 0.29739,-4.92363 -0.62226,-4.92363 -1.19047,0 -2.79124,2.06338 -5.32344,6.8619 -0.75936,1.43899 -1.23069,1.86098 -1.53271,1.37229 z m 11.32806,-0.14502 c -0.14551,-0.3792 1.06618,-8.17475 1.40984,-9.0703 0.0776,-0.20228 0.3345,-0.32889 0.57085,-0.28137 0.46875,0.0943 0.49361,0.46018 0.20256,2.98228 -0.15362,1.33129 -0.12872,1.50811 0.15428,1.09559 1.74357,-2.54148 3.50165,-4.1383 4.55625,-4.1383 0.24868,0 0.80017,0.34803 1.22554,0.7734 0.70825,0.70825 0.7734,0.93021 0.7734,2.63503 0,2.43033 -0.50309,5.76555 -0.92214,6.11333 -0.64919,0.53878 -0.95538,-0.31958 -0.66333,-1.85955 0.38278,-2.01842 0.42386,-5.75464 0.0672,-6.11132 -0.9614,-0.9614 -2.97502,1.15516 -5.22616,5.49334 -1.34256,2.58726 -1.84962,3.14615 -2.14828,2.36787 z m 13.40944,-0.0859 c -1.44125,-0.73491 -1.99436,-1.7002 -1.99436,-3.48055 0,-1.24614 0.14885,-1.77366 0.78934,-2.79744 1.07783,-1.72283 2.67124,-2.82599 4.30919,-2.98338 2.27308,-0.21841 3.37465,0.97095 2.53605,2.73816 -0.70422,1.48404 -3.38032,3.29413 -5.44195,3.6809 -0.77214,0.14485 -0.9239,0.2737 -0.81461,0.69164 0.36549,1.39762 2.63825,1.70633 4.54367,0.61715 1.19854,-0.68511 1.83997,-0.57119 1.51737,0.2695 -0.21501,0.56031 -2.73633,1.7217 -3.74372,1.72445 -0.43656,10e-4 -1.202,-0.206 -1.70098,-0.46043 z m 2.05072,-4.84645 c 0.89369,-0.44658 1.8652,-1.11748 2.15893,-1.49089 1.57522,-2.00256 -0.68573,-2.56433 -3.24026,-0.80509 -0.72133,0.49675 -1.27454,1.34746 -1.63397,2.51263 -0.15528,0.50337 -0.0852,0.59531 0.45339,0.59531 0.35037,0 1.36823,-0.36538 2.26191,-0.81196 z m 6.02088,5.07865 c -0.19787,-0.32016 1.13738,-9.10239 1.42813,-9.39314 0.33601,-0.33601 1.14589,0.0356 0.98595,0.45237 -0.17997,0.46899 -0.53918,3.88033 -0.4086,3.88033 0.0569,0 0.6172,-0.70559 1.2452,-1.56797 1.1548,-1.58579 2.76733,-2.92994 3.51494,-2.92994 0.73079,0 1.28846,0.94661 1.49597,2.53931 l 0.20348,1.56173 0.68059,-1.05981 c 0.37432,-0.58289 1.18174,-1.51257 1.79427,-2.06595 1.34183,-1.21227 2.56409,-1.28341 3.11858,-0.18153 0.41044,0.81561 0.40015,4.7603 -0.0186,7.14375 -0.25348,1.44268 -0.38744,1.71979 -0.83134,1.71979 -0.61017,0 -0.60676,0.0821 -0.1622,-3.90542 0.26908,-2.41356 0.21109,-4.69354 -0.11938,-4.69354 -0.0497,0 -0.38405,0.1338 -0.74297,0.29733 -0.92707,0.4224 -2.12508,2.20078 -3.62581,5.38233 -0.71429,1.5143 -1.40519,2.81908 -1.53534,2.89952 -0.59698,0.36895 -0.75014,-0.56958 -0.40694,-2.49376 0.19466,-1.09141 0.35865,-2.84758 0.36443,-3.90261 0.01,-1.74066 -0.0381,-1.91823 -0.5148,-1.91823 -0.76484,0 -2.65687,2.54771 -4.2638,5.74141 -1.2528,2.48988 -1.81248,3.12386 -2.20174,2.49403 z m 18.90609,-0.2322 c -2.46321,-1.24259 -2.609,-5.09795 -0.28081,-7.42614 1.20829,-1.20829 2.69313,-1.90001 4.07853,-1.90001 0.96175,0 1.28412,0.12988 1.73033,0.69714 0.3016,0.38342 0.54792,0.88944 0.54738,1.12447 -0.003,1.43319 -2.64823,3.74075 -5.09224,4.44275 -1.64873,0.47356 -1.84472,0.82061 -0.96193,1.70339 0.75131,0.75132 2.94044,0.60424 4.18377,-0.28109 0.76473,-0.54454 0.90169,-0.56767 1.25705,-0.21231 0.35535,0.35535 0.30244,0.4704 -0.48562,1.05589 -1.73427,1.2885 -3.45458,1.56363 -4.97646,0.79591 z m 1.99687,-4.79609 c 1.752,-0.82885 2.82476,-1.93833 2.70225,-2.79477 -0.11573,-0.80905 -1.10331,-0.81989 -2.71811,-0.0298 -1.44497,0.70696 -2.14562,1.48997 -2.5288,2.82605 -0.19257,0.67142 -0.15067,0.76015 0.35882,0.75997 0.31727,-1.2e-4 1.30089,-0.34275 2.18584,-0.7614 z m 6.08377,5.02705 c -0.25301,-0.40939 1.20586,-8.85097 1.60398,-9.28119 0.26206,-0.28319 0.43497,-0.30734 0.65133,-0.091 0.21637,0.21636 0.20975,0.79743 -0.0249,2.18875 -0.17572,1.0418 -0.26531,1.94836 -0.1991,2.01458 0.0662,0.0662 0.42085,-0.32851 0.78807,-0.87718 0.88887,-1.32805 2.57014,-2.98161 3.32959,-3.27471 0.95172,-0.3673 1.34426,-0.28803 2.04532,0.41304 0.59146,0.59146 0.64926,0.85717 0.64744,2.97656 -0.002,2.51822 -0.41325,5.62081 -0.79589,6.00686 -0.14241,0.14367 -0.37864,0.12343 -0.58809,-0.0504 -0.29017,-0.24083 -0.28663,-0.81151 0.0207,-3.33592 0.45123,-3.70643 0.29739,-4.92363 -0.62226,-4.92363 -1.19047,0 -2.79123,2.06339 -5.32343,6.86191 -0.75936,1.43898 -1.23069,1.86098 -1.53272,1.37229 z m 13.68121,-0.085 c -0.19599,-0.24393 -0.0701,-1.49858 0.43258,-4.31276 l 0.70897,-3.96875 -1.32787,-0.082 c -2.62209,-0.1619 -2.5364,-1.37322 0.0971,-1.37322 h 1.50854 l 0.88006,-5.02767 c 0.86046,-4.91571 1.21397,-5.93587 1.80862,-5.21936 0.20651,0.24883 0.0478,1.68255 -0.57901,5.22879 l -0.86353,4.88595 1.47401,0.13229 c 1.25352,0.11251 1.47401,0.21145 1.47401,0.66146 0,0.46267 -0.20227,0.53892 -1.6095,0.60679 l -1.60949,0.0776 -0.70031,4.00867 c -0.69538,3.98044 -1.12473,5.09097 -1.69423,4.38217 z M 71.118933,129.29769 c -0.43927,-0.1914 -1.18914,-0.79272 -1.66637,-1.33626 -0.69315,-0.78945 -0.80504,-1.06377 -0.556197,-1.36361 0.260557,-0.31395 0.499697,-0.20187 1.462027,0.68516 0.92526,0.85289 1.34897,1.06051 2.16419,1.06051 1.29332,0 1.98671,-0.49492 1.86754,-1.33297 -0.0689,-0.48485 -0.54436,-0.88858 -1.94336,-1.65034 -2.15964,-1.17594 -2.6798,-1.64542 -2.92197,-2.63731 -0.14658,-0.60039 -0.0169,-0.88617 0.75061,-1.65364 0.78791,-0.78791 1.10875,-0.92782 2.12768,-0.92782 1.49206,0 2.47935,0.36234 3.41228,1.25232 0.53874,0.51394 0.6508,0.77621 0.4401,1.03009 -0.22525,0.27141 -0.48894,0.20408 -1.29826,-0.3315 -1.12485,-0.74439 -3.15698,-0.92475 -3.85859,-0.34247 -0.77535,0.64348 -0.30808,1.36276 1.48045,2.2789 1.94489,0.99624 3.175,2.18544 3.175,3.06942 0,0.85937 -0.72512,1.77281 -1.74588,2.19931 -1.08506,0.45337 -1.84912,0.45343 -2.88925,2.1e-4 z m 9.00075,0.11859 c -1.12071,-0.4587 -1.56831,-1.30155 -1.66897,-3.14274 -0.0842,-1.53924 0.001,-1.95372 0.66362,-3.22172 0.90969,-1.74134 2.80892,-3.175 4.20608,-3.175 1.35415,0 2.50373,1.152 2.67616,2.68181 0.19063,1.6913 -0.49604,3.84337 -1.66034,5.20359 -1.46524,1.71181 -2.79805,2.23464 -4.21655,1.65406 z m 2.79548,-1.78945 c 1.159,-0.97524 1.82187,-2.54228 1.82892,-4.32365 0.007,-1.6716 -0.28866,-2.10386 -1.43617,-2.10245 -2.01122,0.003 -3.6715,2.14966 -3.70089,4.78628 -0.01,0.88775 0.1288,1.65534 0.34662,1.91823 0.56488,0.68175 1.97835,0.54887 2.96152,-0.27841 z m 18.086047,1.66429 c -0.44787,-0.19502 -1.191277,-0.81191 -1.652017,-1.37088 -0.72086,-0.87452 -0.78568,-1.06834 -0.46468,-1.38935 0.321,-0.321 0.51807,-0.22059 1.412617,0.71978 0.89282,0.93855 1.19476,1.09282 2.13888,1.09282 0.75947,0 1.26887,-0.16957 1.64786,-0.54856 0.48969,-0.48969 0.50855,-0.61037 0.17571,-1.12448 -0.20507,-0.31675 -1.0409,-0.93616 -1.85739,-1.37646 -0.8165,-0.4403 -1.78854,-1.08613 -2.16009,-1.43518 -1.597037,-1.50035 -0.276877,-3.7174 2.21356,-3.7174 2.01939,0 4.59902,1.61354 3.82195,2.39061 -0.20829,0.20829 -0.56634,0.1 -1.28774,-0.3896 -1.81469,-1.23148 -4.71274,-0.858 -4.26139,0.54917 0.0869,0.27089 0.93318,0.89279 1.88065,1.38201 2.84109,1.46696 3.79467,3.20879 2.44753,4.47073 -1.17633,1.10193 -2.62655,1.36898 -4.05545,0.74679 z m 17.19886,0.0227 c -0.18862,-0.49154 1.16263,-8.96608 1.48027,-9.28372 0.44352,-0.44352 0.91232,0.31788 0.82435,1.33888 l -0.0819,0.95087 1.03132,-0.82879 c 0.56723,-0.45584 1.43988,-0.94597 1.93923,-1.08918 1.64092,-0.47061 3.43857,0.22137 3.07003,1.18176 -0.12127,0.31601 -0.30514,0.33655 -0.96229,0.10746 -0.94615,-0.32983 -2.28654,-0.13513 -3.12818,0.45437 -0.75353,0.52779 -1.67006,2.34884 -2.45362,4.87509 -0.33852,1.0914 -0.72517,2.1332 -0.85921,2.3151 -0.31728,0.43057 -0.69,0.42111 -0.85998,-0.0218 z m 15.87469,-0.1673 c -1.21453,-0.61728 -2.34582,-1.96916 -2.12639,-2.54099 0.21751,-0.56683 0.58806,-0.46115 1.22329,0.34888 0.76332,0.97336 1.52447,1.3684 2.65839,1.37969 1.31189,0.0131 1.96222,-0.51207 1.73841,-1.40377 -0.13418,-0.53464 -0.60941,-0.91992 -1.99592,-1.61816 -1.88834,-0.95095 -2.93307,-1.96346 -2.93307,-2.84261 0,-2.57447 4.44706,-3.18019 6.59128,-0.89777 0.5003,0.53254 0.52143,0.64724 0.17257,0.93676 -0.32455,0.26936 -0.52607,0.22881 -1.09776,-0.22089 -1.01307,-0.79687 -2.31353,-1.09431 -3.43308,-0.78519 -0.81321,0.22454 -0.93077,0.35633 -0.85989,0.96404 0.0666,0.57118 0.45299,0.90783 2.04881,1.78506 3.01439,1.65704 3.69369,3.49591 1.75958,4.76319 -1.07372,0.70353 -2.52107,0.75443 -3.74622,0.13176 z m 68.88106,0.10569 c -2.12468,-1.15283 -2.05352,-5.06442 0.13533,-7.43904 2.0513,-2.22541 3.61952,-2.53058 5.14827,-1.00184 0.92031,0.92032 0.93259,0.9616 0.8072,2.71409 -0.14151,1.97773 -0.65052,3.19206 -1.89041,4.5099 -1.51042,1.60536 -2.79732,1.97819 -4.20039,1.21689 z m 2.96454,-1.60348 c 1.1568,-0.97339 1.88413,-2.53788 1.94308,-4.17958 0.059,-1.64349 -0.34449,-2.26943 -1.46294,-2.26943 -1.04967,0 -2.07529,0.63948 -2.85824,1.78212 -0.84429,1.23215 -1.08792,4.23037 -0.39968,4.91861 0.65189,0.65189 1.83087,0.54505 2.77778,-0.25172 z m -76.19291,-12.13948 c -0.29276,-0.35276 -0.28135,-0.48997 0.07,-0.84128 0.5674,-0.5674 1.31549,-0.25217 1.20697,0.50859 -0.10337,0.72469 -0.8008,0.90639 -1.27693,0.33269 z m -85.629003,-8.73269 c -0.203814,-0.53113 0.232893,-1.01866 1.663424,-1.85701 0.966527,-0.56642 1.12639,-0.76282 0.871194,-1.07032 -0.171902,-0.20712 -0.50633,-0.3775 -0.743173,-0.37861 -0.707339,-0.003 -12.676752,-3.08295 -15.247291,-3.923003 C 16.982976,95.083668 10.636745,88.996804 8.3904805,78.204948 7.4627495,73.747795 7.8736855,62.80448 9.1207365,58.758072 c 0.54698,-1.774829 1.0657875,-2.645833 1.5759705,-2.645833 0.697344,0 0.652128,0.930181 -0.214399,4.410591 -0.9596025,3.854242 -1.0070295,9.696987 -0.11004,13.556001 1.707364,7.345393 4.278228,12.219248 8.88483,16.843902 5.61774,5.639755 12.840545,8.885847 21.968837,9.873287 1.164166,0.12594 2.221591,0.13304 2.349831,0.0158 0.128241,-0.11725 -0.516613,-0.905977 -1.433008,-1.752726 -2.025437,-1.871502 -3.165782,-3.393415 -3.165782,-4.225074 0,-1.108175 0.90715,-0.703985 3.209913,1.430212 1.217725,1.128585 3.404671,2.931199 4.859879,4.005808 3.319419,2.45125 3.656914,2.81394 3.27773,3.52246 -1.132079,2.1153 -5.7163,4.31249 -6.226051,2.9841 z m 108.614583,-2.38049 c -0.76207,-0.41406 -1.16668,-1.15073 -0.82159,-1.49582 0.12063,-0.12063 0.69008,0.0243 1.26545,0.32205 2.98171,1.54302 5.20407,-1.37618 6.73039,-8.840768 0.79725,-3.899001 0.75981,-4.006441 -0.78546,-2.253659 -2.0655,2.342863 -3.7129,2.897433 -4.94551,1.66482 -0.61391,-0.613907 -0.66915,-0.829078 -0.53831,-2.096805 0.0802,-0.776982 0.399,-1.987179 0.70847,-2.689327 0.6019,-1.365651 2.59294,-3.590267 3.76601,-4.207808 0.83752,-0.440899 2.48578,-0.498787 2.73469,-0.09604 0.0974,0.157559 0.49828,0.208652 0.91647,0.116801 0.40885,-0.0898 0.80348,-0.06601 0.87695,0.05286 0.22736,0.367874 -1.63482,10.667429 -2.35838,13.044017 -0.88081,2.893099 -1.77382,4.525189 -3.19045,5.830989 -0.99994,0.92172 -1.28947,1.0469 -2.39981,1.03758 -0.69448,-0.006 -1.57599,-0.18082 -1.95892,-0.38888 z m 4.52666,-11.939164 c 0.90262,-0.759512 2.51018,-3.016143 3.41194,-4.789563 l 0.56996,-1.120918 -0.53272,-0.532728 c -0.69326,-0.69326 -1.175,-0.671785 -2.51243,0.112003 -1.84428,1.080822 -3.31197,3.663946 -3.31197,5.829064 0,1.148976 0.0323,1.199123 0.77345,1.199123 0.44951,0 1.12037,-0.291913 1.60177,-0.696981 z m -25.36648,1.920729 c -0.25419,-0.306286 -0.15043,-1.334919 0.50156,-4.972151 0.45213,-2.522285 0.92973,-4.694036 1.06133,-4.826113 0.14323,-0.143743 0.38334,-0.120584 0.59815,0.05769 0.29954,0.248601 0.22486,1.062706 -0.45181,4.924835 -0.82521,4.709975 -1.11631,5.530151 -1.70923,4.815735 z m 73.06593,0.0463 c -0.39771,-0.483436 1.20159,-9.733021 1.71709,-9.930837 0.83195,-0.319251 0.83899,0.437889 0.0462,4.967104 -0.80378,4.591904 -1.1854,5.666183 -1.76328,4.963733 z m 30.91532,-0.0463 c -0.25419,-0.306286 -0.15043,-1.334919 0.50156,-4.972151 0.45213,-2.522285 0.92973,-4.694036 1.06133,-4.826113 0.14323,-0.143743 0.38334,-0.120584 0.59815,0.05769 0.29954,0.248601 0.22486,1.062706 -0.45181,4.924835 -0.82521,4.709975 -1.11632,5.530151 -1.70923,4.815735 z m -61.3647,-0.513197 c -1.4306,-1.522806 -0.27131,-5.541077 2.2851,-7.920447 1.18175,-1.099915 1.49398,-1.256771 2.50167,-1.256771 0.63326,0 1.3825,0.170068 1.66498,0.37793 0.45471,0.334604 0.57728,0.318427 1.06919,-0.141105 1.08151,-1.010339 1.16296,-0.192778 0.45083,4.525675 -0.68408,4.53264 -0.94999,5.329215 -1.57149,4.707714 -0.27305,-0.273058 -0.28754,-0.720948 -0.0688,-2.126235 0.39413,-2.531566 0.25011,-2.962062 -0.55381,-1.655437 -0.88257,1.434464 -2.59437,3.265539 -3.48186,3.72448 -1.02825,0.531727 -1.63316,0.469597 -2.29585,-0.235804 z m 3.14536,-1.999227 c 0.68317,-0.708772 1.75589,-2.15348 2.38383,-3.210462 l 1.14171,-1.921787 -0.60969,-0.493704 c -0.91619,-0.741879 -1.74801,-0.606151 -2.95212,0.481693 -1.23262,1.1136 -2.26933,2.985458 -2.51933,4.548854 -0.36672,2.293377 0.6832,2.537989 2.5556,0.595406 z m -85.948737,2.019205 c -0.36415,-0.438775 2.45673,-19.191923 2.96747,-19.727663 0.26906,-0.282232 0.37987,-0.281457 0.61704,0.0043 0.36084,0.434788 -2.45571,19.206198 -2.96094,19.733704 -0.27025,0.282167 -0.38234,0.280306 -0.62357,-0.01035 z m 13.560077,0.0038 c -0.20662,-0.538436 1.09378,-8.936784 1.4369,-9.279902 0.21232,-0.212317 0.37405,-0.209012 0.59522,0.01216 0.22286,0.22286 0.23228,0.817922 0.0354,2.235729 -0.284,2.044921 -0.20348,2.518879 0.28727,1.691125 0.80612,-1.35967 2.54318,-3.254466 3.41751,-3.727837 1.50806,-0.816479 2.10681,-0.282004 2.48657,2.219642 l 0.21645,1.425891 1.03107,-1.501704 c 1.68383,-2.452423 3.21452,-3.167446 4.27415,-1.996561 0.64363,0.711201 0.80292,3.162282 0.40154,6.178525 -0.36811,2.766157 -0.49033,3.118084 -1.04369,3.00534 -0.35353,-0.07203 -0.40651,-0.344096 -0.29877,-1.534344 0.26841,-2.965402 0.15126,-6.9518 -0.20784,-7.072148 -0.79761,-0.267305 -2.98425,2.853165 -4.42434,6.313809 -0.85747,2.060551 -1.24052,2.530895 -1.65472,2.031813 -0.21087,-0.254082 -0.18721,-1.031276 0.087,-2.85755 0.79064,-5.265753 0.35789,-6.395063 -1.59165,-4.153616 -0.58886,0.677036 -1.78504,2.566038 -2.65816,4.197784 -1.55352,2.90331 -2.10556,3.552809 -2.38989,2.811842 z m 82.19825,-0.02892 c -0.2697,-0.324965 -0.20456,-1.121338 0.34465,-4.213752 0.37246,-2.097183 0.6772,-3.886212 0.6772,-3.975621 0,-0.08941 -0.68461,-0.198268 -1.52136,-0.24191 -1.31851,-0.06877 -1.52135,-0.149903 -1.52135,-0.608517 0,-0.464251 0.20263,-0.538824 1.65176,-0.607888 1.45477,-0.06933 1.66729,-0.14822 1.78201,-0.661459 0.0716,-0.320505 0.43292,-2.368674 0.80285,-4.551486 0.74137,-4.374502 0.98151,-5.159375 1.57854,-5.159375 0.55366,0 0.51738,0.510076 -0.39514,5.55625 -0.43421,2.401094 -0.78954,4.454922 -0.78964,4.564062 -1e-4,0.109141 0.58056,0.198438 1.29035,0.198438 0.748,0 1.41271,0.147241 1.5812,0.350254 0.48483,0.584187 -0.2006,0.972663 -1.71619,0.972663 -1.62245,0 -1.43223,-0.376562 -2.24774,4.449657 -0.64388,3.810492 -0.95233,4.609235 -1.51714,3.928684 z m 13.22733,-0.0022 c -0.21584,-0.260077 -0.2257,-0.754143 -0.0351,-1.759168 0.14577,-0.768636 0.26503,-1.707103 0.26503,-2.085481 0,-0.615154 -0.0943,-0.547937 -0.89104,0.635166 -1.18425,1.758504 -2.92027,3.30002 -3.71641,3.30002 -0.38669,0 -0.90645,-0.320014 -1.32215,-0.814051 -0.8324,-0.989251 -0.90811,-2.700899 -0.2699,-6.102034 0.44503,-2.371669 0.86976,-3.160105 1.37464,-2.551772 0.21032,0.253429 0.1862,0.887571 -0.0886,2.328384 -0.52445,2.750093 -0.50681,5.51924 0.0365,5.727725 1.06274,0.407811 2.58951,-1.361979 4.62652,-5.362945 1.52449,-2.994294 1.71461,-3.244037 2.14326,-2.815389 0.23072,0.230726 0.12429,1.407331 -0.43559,4.815146 -0.7314,4.451903 -1.07905,5.417143 -1.68718,4.684399 z m 50.01257,0.0076 c -0.21831,-0.263043 -0.12533,-1.297395 0.36177,-4.024503 0.36057,-2.018757 0.65559,-3.825441 0.65559,-4.014853 0,-0.235721 -0.4072,-0.344385 -1.29052,-0.344385 -0.76869,0 -1.41192,-0.146283 -1.59076,-0.361771 -0.46617,-0.561703 0.17387,-0.917474 1.81963,-1.011449 l 1.43585,-0.08199 0.85991,-4.854036 c 0.86632,-4.890229 1.19001,-5.845803 1.80682,-5.333899 0.25419,0.210954 0.16099,1.204911 -0.42825,4.567326 -0.41423,2.363731 -0.82245,4.618931 -0.90716,5.011556 -0.15209,0.70489 -0.13468,0.714867 1.38533,0.79375 1.33634,0.06935 1.53936,0.149676 1.53936,0.609053 0,0.463285 -0.2024,0.538884 -1.62571,0.607213 l -1.62571,0.07805 -0.54793,2.964662 c -0.30137,1.630565 -0.62645,3.468431 -0.72241,4.084147 -0.20205,1.296333 -0.67803,1.850673 -1.12581,1.311132 z m 13.25768,0.03006 c -0.20034,-0.244456 -0.18608,-0.899125 0.0493,-2.262238 0.18217,-1.055026 0.25685,-1.918229 0.16597,-1.918229 -0.0909,0 -0.68659,0.715919 -1.32379,1.590932 -1.1958,1.642081 -2.47452,2.642402 -3.37783,2.642402 -0.79213,0 -1.6952,-1.146312 -1.85774,-2.358129 -0.18011,-1.342835 0.66853,-6.796128 1.11532,-7.166928 0.229,-0.190052 0.42043,-0.157984 0.64061,0.10731 0.24361,0.293537 0.22182,0.864334 -0.0972,2.546032 -0.5496,2.897271 -0.5485,5.248133 0.003,5.459592 1.14237,0.438369 2.72903,-1.451981 4.97737,-5.930065 0.67582,-1.346068 1.35038,-2.447396 1.49901,-2.447396 0.58846,0 0.56528,1.015599 -0.1168,5.118091 -0.70583,4.245335 -1.09781,5.32505 -1.67676,4.618626 z M 123.43727,93.294583 c -3.48092,-2.929006 0.97382,-10.805557 4.94876,-8.750035 3.20569,1.657727 0.83854,8.795199 -3.09177,9.322365 -0.83168,0.111552 -1.16709,0.0082 -1.85699,-0.57233 z m 3.24655,-1.244289 c 1.50437,-1.183338 2.47834,-4.627496 1.71301,-6.057532 -0.20009,-0.373868 -0.55657,-0.511772 -1.32292,-0.511772 -1.89702,0 -3.69485,2.464539 -3.69485,5.065054 0,1.961511 1.72516,2.746764 3.30476,1.50425 z m 11.46962,1.362423 c -1.0254,-0.541702 -2.07438,-1.686196 -2.07438,-2.263252 0,-0.737409 0.63156,-0.695858 1.29679,0.08532 0.87118,1.023012 1.60191,1.389958 2.76795,1.389958 0.83363,0 1.75609,-0.534938 1.75609,-1.018361 0,-0.530213 -0.98235,-1.448488 -2.20123,-2.057657 -2.76587,-1.382316 -3.48007,-2.748481 -2.20923,-4.22593 0.88832,-1.032734 3.01484,-1.179781 4.65828,-0.322117 1.34697,0.702945 1.87693,1.371816 1.43615,1.812592 -0.20829,0.208288 -0.56634,0.09996 -1.28774,-0.389593 -1.90421,-1.292228 -4.87175,-0.796464 -4.08065,0.681722 0.14511,0.271136 0.88464,0.803 1.6434,1.18192 0.75876,0.378919 1.76651,1.056959 2.23946,1.506753 2.45175,2.331756 -0.77611,5.292671 -3.94489,3.618648 z m 26.42132,0.351152 c -0.22804,-0.37777 1.18737,-8.931746 1.53991,-9.306373 0.57857,-0.614819 0.99461,-0.07453 0.81372,1.056724 -0.0902,0.563807 -0.0889,1.025103 0.003,1.025103 0.0916,0 0.56775,-0.352177 1.05799,-0.782616 1.18158,-1.037444 2.75451,-1.461048 3.95454,-1.065 1.08406,0.35777 1.33089,0.682038 0.9075,1.192188 -0.22754,0.274172 -0.44968,0.307723 -0.79913,0.120702 -1.37592,-0.736369 -3.36999,0.164987 -4.41966,1.997759 -0.3309,0.57778 -0.93929,2.122071 -1.35197,3.431759 -0.48089,1.526149 -0.89875,2.410263 -1.16365,2.462045 -0.22733,0.04444 -0.47121,-0.01509 -0.54196,-0.132291 z m 46.91361,-0.411525 c 0.002,-0.327422 0.29796,-2.202656 0.65839,-4.167187 0.36043,-1.964532 0.65671,-3.5957 0.6584,-3.624818 0.002,-0.02912 -0.68155,-0.08865 -1.51829,-0.132291 -1.31852,-0.06877 -1.52136,-0.149903 -1.52136,-0.608517 0,-0.463384 0.20243,-0.538877 1.62836,-0.607281 l 1.62836,-0.07812 0.41657,-2.303135 c 0.22911,-1.266725 0.61684,-3.493761 0.86162,-4.948969 0.47914,-2.848546 0.83799,-3.609544 1.38901,-2.945606 0.25644,0.308985 0.15727,1.307915 -0.48574,4.893168 -0.44438,2.477708 -0.80797,4.690224 -0.80797,4.916702 0,0.316366 0.29902,0.411778 1.29052,0.411778 0.7687,0 1.41193,0.146283 1.59076,0.36177 0.46706,0.562772 -0.17486,0.917615 -1.82975,1.01145 l -1.44597,0.08199 -0.67783,3.845369 c -0.37281,2.114953 -0.76734,3.990188 -0.87673,4.167188 -0.33584,0.543402 -0.96164,0.364812 -0.95835,-0.273494 z m 16.88798,0.06037 c -1.02539,-0.541702 -2.07438,-1.686196 -2.07438,-2.263252 0,-0.737409 0.63157,-0.695858 1.2968,0.08532 0.87117,1.023012 1.60191,1.389958 2.76795,1.389958 0.83363,0 1.75609,-0.534938 1.75609,-1.018361 0,-0.530213 -0.98235,-1.448488 -2.20124,-2.057657 -2.76587,-1.382316 -3.48007,-2.748481 -2.20922,-4.22593 0.88832,-1.032734 3.01484,-1.179781 4.65828,-0.322117 1.34696,0.702945 1.87692,1.371816 1.43615,1.812592 -0.20829,0.208288 -0.56635,0.09996 -1.28775,-0.389593 -1.9042,-1.292228 -4.87174,-0.796464 -4.08064,0.681722 0.14511,0.271136 0.88464,0.803 1.64339,1.18192 0.75876,0.378919 1.76652,1.056959 2.23946,1.506753 2.45176,2.331756 -0.7761,5.292671 -3.94489,3.618648 z M 133.95137,79.779169 c -0.2812,-0.338818 -0.26382,-0.486732 0.0999,-0.850447 0.40772,-0.40772 0.47233,-0.408255 0.87335,-0.0072 0.48089,0.480892 0.31947,1.267838 -0.26006,1.267838 -0.20503,0 -0.52596,-0.184569 -0.71318,-0.410154 z m 73.03442,0.01135 c -0.29277,-0.352758 -0.28136,-0.489963 0.07,-0.841277 0.56739,-0.567398 1.31549,-0.252166 1.20697,0.508594 -0.10338,0.724684 -0.8008,0.906387 -1.27693,0.332683 z m 30.94683,-0.01135 c -0.2812,-0.338818 -0.26382,-0.486732 0.0999,-0.850447 0.40772,-0.40772 0.47233,-0.408255 0.87335,-0.0072 0.48089,0.480892 0.31947,1.267838 -0.26006,1.267838 -0.20503,0 -0.52596,-0.184569 -0.71318,-0.410154 z"
       id="path1" /></g></svg>
