<?xml version="1.0" encoding="UTF-8" standalone="no"?>
<!-- Created with Inkscape (http://www.inkscape.org/) -->

<svg
   version="1.1"
   id="svg1"
   width="964.86646"
   height="941.60626"
   viewBox="0 0 964.86641 941.60622"
   sodipodi:docname="tickets.svg"
   inkscape:version="1.3.2 (091e20ef0f, 2023-11-25)"
   xmlns:inkscape="http://www.inkscape.org/namespaces/inkscape"
   xmlns:sodipodi="http://sodipodi.sourceforge.net/DTD/sodipodi-0.dtd"
   xmlns="http://www.w3.org/2000/svg"
   xmlns:svg="http://www.w3.org/2000/svg">
  <defs
     id="defs1" />
  <sodipodi:namedview
     id="namedview1"
     pagecolor="#ffffff"
     bordercolor="#000000"
     borderopacity="0.25"
     inkscape:showpageshadow="2"
     inkscape:pageopacity="0.0"
     inkscape:pagecheckerboard="0"
     inkscape:deskcolor="#d1d1d1"
     inkscape:zoom="0.52966464"
     inkscape:cx="366.2695"
     inkscape:cy="509.75652"
     inkscape:window-width="2560"
     inkscape:window-height="1002"
     inkscape:window-x="0"
     inkscape:window-y="0"
     inkscape:window-maximized="1"
     inkscape:current-layer="g1" />
  <g
     inkscape:groupmode="layer"
     inkscape:label="Image"
     id="g1"
     transform="translate(-40.423513,-54.393834)">
    <path
       style="fill:#000000"
       d="m 303.66372,959.66674 c -14.85355,-19.98333 -29.17519,-39.28917 -31.82586,-42.90186 -4.81939,-6.56851 -4.81939,-6.56851 1.14856,-14.66666 65.8972,-89.41855 -24.29632,-211.35672 -130.0589,-175.83463 -5.43357,1.82495 -10.34286,2.81222 -10.90952,2.19394 -7.06603,-7.70961 -62.742796,-84.9298 -61.863428,-85.80069 C 103.359,609.77227 568.38458,274.56845 573.33338,279.95107 c 20.59631,22.40184 45.93275,-0.1141 27.42819,-24.37483 -3.14263,-4.12021 57.69708,-52.22972 140.67706,-111.24155 2.09845,-1.49233 5.35353,2.38596 31.33415,37.33333 15.94584,21.44927 30.37995,40.83521 32.0758,43.07987 3.08337,4.08121 3.08337,4.08121 -2.41772,11.33333 -66.26389,87.35613 22.7018,211.78668 127.0336,177.67369 6.16126,-2.01452 11.59301,-3.68349 12.07058,-3.70882 1.04921,-0.0557 63.81676,84.26774 63.75486,85.6498 -0.042,0.93093 -143.02099,107.34472 -144.99597,107.9147 -0.52829,0.15247 -2.97198,-2.45382 -5.43042,-5.79175 -16.2974,-22.12774 -45.53383,-1.94289 -30.19678,20.84787 2.56667,3.81406 4.63972,7.32435 4.60679,7.80066 -0.0329,0.4763 -24.48293,18.93773 -54.33333,41.02539 -29.85041,22.08766 -141.70688,105.03766 -248.56994,184.33335 -106.86306,79.29568 -194.61229,144.17397 -194.99827,144.17397 -0.38599,0 -12.85471,-16.35 -27.70826,-36.33334 z m 494.44305,-404.8476 c 6.86097,-4.18381 10.25849,-14.18122 7.38552,-21.7323 -1.99249,-5.23688 -53.3177,-73.45157 -57.18363,-76.00092 -12.49981,-8.2429 -30.97401,4.35784 -27.34581,18.65182 1.59901,6.29958 52.78455,75.68265 58.37054,79.12248 5.14275,3.16689 13.54283,3.1485 18.77338,-0.0411 z M 693.55703,422.62688 c 15.05621,-4.18186 17.23924,-17.93172 5.44302,-34.28294 -28.84781,-39.98712 -48.01479,-64.50187 -51.86817,-66.33987 -16.42828,-7.83601 -32.60855,10.14342 -23.12555,25.69698 13.70543,22.479 53.96464,73.33579 59.27697,74.88067 5.4267,1.57814 4.7649,1.57524 10.27373,0.0452 z M 126.00001,835.9138 c -3.66667,-2.18596 -7.56667,-4.3645 -8.66667,-4.8412 -1.1,-0.47671 -8.6,-4.57095 -16.66667,-9.09832 -8.066663,-4.52737 -18.266664,-10.21996 -22.666664,-12.65021 -4.4,-2.43025 -12.200001,-6.75562 -17.333335,-9.61193 -5.133333,-2.85632 -10.983334,-5.89157 -13.000001,-6.74501 -2.016667,-0.85344 -3.666667,-2.02016 -3.666667,-2.59272 0,-0.57256 -0.9,-1.04102 -2,-1.04102 -3.597358,0 -1.733291,-4.27959 12.921396,-29.66543 2.857134,-4.94932 7.189508,-12.74932 9.627497,-17.33333 2.437989,-4.58402 5.619702,-10.43457 7.070475,-13.00124 1.450772,-2.56667 4.609817,-8.15676 7.020099,-12.42244 2.410282,-4.26567 4.829028,-7.26567 5.37499,-6.66666 0.545962,0.599 7.130513,9.37324 14.632336,19.4983 20.035914,27.04208 28.119694,30.66097 51.353214,22.98943 36.25221,-11.97021 68.81066,-3.9445 94.50841,23.29646 7.34796,7.78923 19.4916,27.89871 19.4916,32.27747 0,0.93181 -3.144,0.24997 -14.66667,-3.18074 -16.16928,-4.81418 -45.30259,-4.60347 -61.33334,0.4436 -13.46369,4.23886 -29.90879,12.56119 -35.7619,18.09792 -0.96905,0.91667 -2.19672,1.66667 -2.72815,1.66667 -0.53144,0 -4.48397,3.3 -8.7834,7.33333 -4.29943,4.03333 -7.87176,7.30818 -7.93852,7.27744 -0.0667,-0.0308 -3.12136,-1.84441 -6.78803,-4.03037 z m 66.5161,-324.18404 c 5.7583,-10.8272 10.17649,-18.71513 11.42444,-20.39639 0.54433,-0.73333 3.40925,-5.83333 6.3665,-11.33333 7.91356,-14.71795 12.90502,-23.76627 25.25886,-45.78831 6.10543,-10.88357 11.10078,-20.01516 11.10078,-20.29243 0,-0.27727 2.90935,-5.47253 6.46522,-11.54503 5.92679,-10.12141 9.28044,-16.14758 20.61378,-37.04091 2.18784,-4.03333 6.37277,-11.4796 9.29986,-16.54726 2.92709,-5.06766 6.933,-12.26767 8.90203,-16 4.23741,-8.03211 10.18282,-18.79571 18.47807,-33.45274 3.32027,-5.86667 7.62652,-13.66667 9.56942,-17.33334 6.39613,-12.0708 19.50983,-35.16296 20.68876,-36.43122 0.22047,-0.23717 3.6647,1.11283 7.65385,3 25.31409,11.97549 41.70115,-16.29298 18.31056,-31.5866 -7.98776,-5.22269 -7.93127,-4.02837 -0.82189,-17.37643 5.80955,-10.90761 6.797,-12.69244 17.48585,-31.60576 3.10832,-5.5 7.92315,-14.2 10.69963,-19.33333 2.77648,-5.13334 7.29202,-13.23334 10.03455,-18 7.10283,-12.34514 10.28507,-18.06238 15.95602,-28.66667 6.9641,-13.022417 12.1828,-22.428517 13.31568,-24.000004 0.52866,-0.733333 3.23919,-5.533334 6.02339,-10.666668 8.59203,-15.84142 7.00431,-15.085086 18.06194,-8.604073 9.56155,5.604145 16.36576,9.370184 43.92996,24.314635 4.03334,2.186747 7.93334,4.409281 8.66667,4.938964 0.73333,0.529683 5.50056,3.225122 10.59385,5.989864 22.58634,12.260352 21.04886,10.386892 18.07698,22.027282 -8.27105,32.39642 5.53179,77.67499 31.54624,103.48364 9.16181,9.08933 5.90696,12.67357 -48.6404,53.56269 -24.33813,18.24405 -21.95483,17.60109 -35.99908,9.71171 -14.19079,-7.9717 -33.83478,-18.80339 -42.24426,-23.29346 -14.13965,-7.54957 -28.64733,-0.32739 -28.66169,14.26831 -0.009,8.94776 3.73831,13.92927 15.32835,20.37792 11.56965,6.4373 25.12735,13.78016 31.02023,16.80058 3.12779,1.60316 5.22779,3.31562 4.66667,3.80547 -1.81874,1.5877 -274.30036,203.41198 -275.99495,204.42657 -0.90276,0.54049 0.3681,-2.79566 2.82413,-7.41368 z"
       id="path1" />
  </g>
</svg>
